# xmcd CD database file
#
# Track frame offsets:
#	150
#	34298
#	62150
#	86845
#	124968
#	150506
#	177301
#	201157
#	227148
#
# Disc length: 3470 seconds
#
# Revision: 0
# Processed by: cddbd v1.5.2PL0 Copyright (c) Steve Scherf et al.
# Submitted via: CDex 1.70beta2
#
DISCID=7b0d8c09
DTITLE=FRANCO D'ANDREA TRIO - PREZ AND BIX
DYEAR=2004
DGENRE=Jazz
TTITLE0=Lester smooths
TTITLE1=I'm comin' virginia
TTITLE2=At the jazz band ball
TTITLE3=East of the sun
TTITLE4=davemport blues
TTITLE5=Movin with Lester
TTITLE6=Prez and Bix
TTITLE7=At the jazz ball
TTITLE8=Devemport blues
EXTD=YEAR: 2004
EXTT0=
EXTT1=
EXTT2=
EXTT3=
EXTT4=
EXTT5=
EXTT6=
EXTT7=
EXTT8=
PLAYORDER=
